<svg xmlns="http://www.w3.org/2000/svg" viewBox="0 0 341 122" width="341" height="122" role="img" aria-label="Vectorized logo">
  <path fill="#000" fill-rule="evenodd" d="M 294 53 L 294 79 L 296 82 L 313 82 L 315 80 L 315 64 L 314 63 L 311 63 L 310 64 L 310 70 L 309 71 L 305 71 L 304 70 L 304 62 L 307 59 L 316 59 L 320 61 L 322 65 L 322 81 L 321 83 L 318 86 L 297 86 L 294 89 L 294 102 L 298 104 L 300 104 L 305 107 L 307 107 L 321 114 L 328 116 L 338 105 L 321 97 L 323 95 L 325 95 L 329 93 L 334 87 L 334 56 L 333 54 L 331 53 Z M 272 36 L 272 110 L 288 110 L 288 36 Z M 150 36 L 149 37 L 149 51 L 152 51 L 153 52 L 152 53 L 151 61 L 159 62 L 160 63 L 164 63 L 169 65 L 169 68 L 168 69 L 158 70 L 157 71 L 152 71 L 150 73 L 151 101 L 153 106 L 159 110 L 168 110 L 169 109 L 176 108 L 180 105 L 180 95 L 179 93 L 177 92 L 172 92 L 170 94 L 170 99 L 169 100 L 165 100 L 163 98 L 163 86 L 166 83 L 175 81 L 183 85 L 185 85 L 189 88 L 189 110 L 206 110 L 206 52 L 207 51 L 207 37 L 206 36 Z M 170 51 L 189 51 L 190 52 L 190 76 L 189 77 L 183 74 L 181 72 L 181 55 L 170 53 L 169 52 Z M 56 36 L 55 37 L 55 51 L 73 51 L 89 58 L 88 59 L 59 59 L 59 83 L 60 85 L 76 85 L 78 84 L 78 68 L 74 68 L 73 69 L 73 74 L 72 75 L 69 75 L 68 74 L 68 67 L 70 65 L 81 65 L 84 68 L 84 86 L 81 89 L 61 89 L 59 91 L 59 98 L 82 98 L 83 97 L 87 97 L 91 95 L 106 78 L 107 79 L 107 110 L 122 110 L 122 69 L 121 68 L 104 68 L 97 74 L 96 73 L 96 62 L 97 61 L 105 65 L 114 65 L 116 63 L 116 52 L 117 51 L 122 51 L 122 36 Z M 97 52 L 98 51 L 106 51 L 107 52 L 107 54 L 105 56 Z M 2 36 L 1 37 L 1 51 L 34 51 L 35 52 L 33 54 L 31 54 L 30 55 L 28 55 L 27 56 L 25 56 L 3 64 L 3 99 L 8 100 L 9 101 L 14 101 L 15 102 L 20 102 L 21 103 L 31 104 L 35 107 L 35 110 L 51 110 L 51 36 Z M 15 78 L 17 76 L 19 76 L 20 75 L 23 75 L 28 73 L 33 73 L 34 74 L 34 89 L 33 90 L 31 90 L 30 89 L 17 85 L 15 83 Z M 295 10 L 295 24 L 294 26 L 295 27 L 299 27 L 304 29 L 313 30 L 315 31 L 318 35 L 317 36 L 293 36 L 293 50 L 294 51 L 336 51 L 336 30 L 333 24 L 325 17 L 315 15 L 314 14 L 311 14 L 310 13 L 307 13 L 306 12 L 303 12 L 302 11 L 299 11 L 298 10 Z M 251 10 L 227 19 L 222 24 L 219 31 L 219 35 L 218 36 L 212 36 L 211 37 L 211 51 L 220 51 L 227 58 L 227 64 L 228 65 L 227 67 L 227 72 L 225 76 L 219 82 L 216 82 L 216 101 L 219 106 L 225 109 L 255 109 L 260 107 L 264 103 L 267 96 L 267 91 L 268 90 L 268 71 L 267 70 L 267 66 L 265 62 L 261 58 L 248 52 L 249 51 L 268 51 L 268 36 L 238 36 L 237 35 L 240 31 L 248 29 L 251 27 Z M 234 59 L 244 61 L 246 62 L 250 67 L 250 85 L 245 90 L 234 90 L 231 87 L 232 84 L 234 82 L 235 75 L 236 74 L 236 72 L 235 71 L 235 65 L 233 60 Z M 186 2 L 183 2 L 182 3 L 179 3 L 178 4 L 175 4 L 174 5 L 171 5 L 170 6 L 167 6 L 166 7 L 163 7 L 162 8 L 159 8 L 158 9 L 155 9 L 150 11 L 142 12 L 135 15 L 130 20 L 127 26 L 127 110 L 145 110 L 145 30 L 148 27 L 156 26 L 161 24 L 165 24 L 166 23 L 170 23 L 171 22 L 186 19 Z"/>
</svg>